<?xml version="1.0" standalone="no"?><!DOCTYPE svg PUBLIC "-//W3C//DTD SVG 1.1//EN" "http://www.w3.org/Graphics/SVG/1.1/DTD/svg11.dtd"><svg t="1484116349240" class="icon" style="" viewBox="0 0 1024 1024" version="1.1" xmlns="http://www.w3.org/2000/svg" p-id="1208" xmlns:xlink="http://www.w3.org/1999/xlink" width="48" height="48"><defs><style type="text/css"></style></defs><path d="M173.4144 231.06048c14.40256 0 26.41408-4.8128 36.02944-14.4128 12.01152-12.0064 16.80896-24.01792 16.80896-38.43072s-4.79744-26.42432-16.80896-36.02944c-9.61536-12.0064-21.62688-14.4128-36.02944-14.4128-14.42304 0-26.43456 2.4064-38.44096 14.4128-9.6 9.60512-16.80896 21.61664-16.80896 36.02944s7.21408 26.42432 16.80896 38.43072C146.98496 226.24768 158.99136 231.06048 173.4144 231.06048z" p-id="1209"></path><path d="M850.74432 430.4128c0-14.4128-4.79744-26.4192-16.80384-36.02944-9.62048-12.0064-21.632-16.8192-36.02944-16.8192-16.8192 0-26.43456 4.80768-38.44608 16.8192-9.59488 9.60512-14.40256 21.61664-14.40256 36.02944 0 14.41792 4.80768 26.42432 14.40256 38.43072 12.01152 9.60512 21.62688 14.41792 38.44608 14.41792 14.40256 0 26.40896-4.80768 36.02944-14.41792C845.952 456.83712 850.74432 444.83072 850.74432 430.4128z" p-id="1210"></path><path d="M473.65632 473.64608c-9.62048 9.61536-14.42304 21.62688-14.42304 36.02944 0 14.40768 4.80256 26.42432 14.42304 38.43072 12.01152 9.60512 24.01792 16.8192 38.42048 16.8192 14.40768 0 26.42432-7.21408 36.02432-16.8192 12.01152-12.0064 16.82432-24.02304 16.82432-38.43072 0-14.40256-4.80768-26.40896-16.82432-36.02944-9.6-12.01152-21.61664-16.80896-36.02432-16.80896C497.67424 456.83712 485.66272 461.63456 473.65632 473.64608z" p-id="1211"></path><path d="M89.34912 255.08352c-4.80768 2.39104-9.61024 4.79232-14.42304 12.0064C31.6928 339.1488 10.08128 423.21408 10.08128 514.47808c0 139.31008 50.44736 257.00864 148.91008 355.4816 43.24352 43.24352 88.87296 76.86656 139.3152 100.88448 64.8448 31.22176 136.90368 45.63456 216.17152 48.03584 117.69344-2.40128 220.96896-36.02944 307.45088-103.27552 16.80896-14.4128 33.61792-31.232 50.43712-45.6448 40.83712-40.82688 72.05888-86.46144 98.47808-134.49728 31.232-67.26656 48.03584-139.32032 48.03584-220.98432 0-122.496-38.43072-228.17792-112.88064-321.84832l0 2.4064c-12.01152-14.41792-21.62688-26.42432-33.63328-36.03456-98.46784-98.47808-218.56256-148.92032-357.88288-146.51392-98.47808-2.4064-184.9344 21.61664-261.80096 72.05888-7.19872 2.40128-9.61536 7.19872-12.01152 14.40768 0 7.20384 0 12.01664 2.39104 19.21024 4.80768 4.80768 9.61536 9.60512 16.8192 9.60512 4.80768 2.4064 12.01152 0 16.8192-2.40128 69.65248-45.63456 148.92032-67.24608 237.78304-64.8448 127.3088-2.40128 235.39712 43.22816 324.25984 132.10624l0 0c9.60512 9.60512 19.22048 21.61664 28.81536 31.21664 69.66272 84.06528 103.29088 180.1472 103.29088 290.63168 0 74.46016-14.41792 139.31008-45.63456 199.35744-19.21024 43.24352-50.44736 84.0704-86.4768 122.50112-14.4128 14.4128-31.232 28.8256-45.62944 40.83712l0 0c-79.2576 60.04736-172.93824 91.26912-278.62528 93.6704-69.65248-2.40128-136.89856-16.8192-194.55488-43.22816-48.03584-24.01792-88.87296-52.84864-127.29344-91.27936-88.87808-88.86272-134.50752-194.56-134.50752-321.85344 0-81.664 19.2256-158.52544 60.04736-223.37024 2.40128-7.21408 2.40128-12.01152 0-19.2256 0-4.79744-4.79744-9.60512-12.01152-14.4128C101.35552 255.08352 96.55296 255.08352 89.34912 255.08352z" p-id="1212"></path><path d="M514.47808 190.22336c-88.86272 0-163.328 31.21664-228.17792 93.6704-64.8448 64.85504-93.6704 139.3152-93.6704 228.17792 0 88.87808 28.8256 165.72928 93.6704 228.17792 64.84992 64.86016 139.31008 96.08192 228.17792 96.08192 88.86784 0 165.72928-31.22176 228.18304-96.08192 48.04096-45.63456 76.85632-100.86912 91.28448-163.32288 0-7.21408 0-12.01152-4.8128-19.22048-2.40128-7.20384-9.61536-9.60512-14.4128-9.60512-7.21408-2.40128-12.0064 0-19.22048 2.40128-4.79232 4.80768-7.19872 9.60512-9.58976 14.4128-9.61536 55.2448-36.02944 100.87424-76.86656 141.71136-52.84352 55.23968-117.70368 81.664-194.56 81.664-74.45504 0-139.3152-26.42432-194.55488-81.664-52.84352-52.84352-79.2576-117.68832-79.2576-194.56 0-74.45504 26.41408-139.29984 79.2576-194.55488 55.23968-52.83328 120.09984-79.2576 194.55488-79.2576 76.85632 0 141.71648 26.42432 194.56 79.2576 9.60512 9.62048 19.21024 21.62688 28.8256 31.23712 2.39104 4.79232 7.19872 7.19872 14.40256 9.6 7.20384 0 12.01152-2.40128 19.21024-4.8128 4.80768-4.79232 7.20896-9.6 7.20896-16.80384 2.4064-7.20896 0-12.01152-4.79232-16.8192-9.61536-12.01152-19.22048-24.01792-31.23712-36.02944C680.20736 221.44 603.34592 190.22336 514.47808 190.22336z" p-id="1213"></path></svg>